<svg xmlns="http://www.w3.org/2000/svg" xmlns:xlink="http://www.w3.org/1999/xlink" version="1.1" width="305" height="115">
    <rect fill="#489431" width="305" height="115"/>
    <g transform="scale(0.751937984496124) translate(10, 10)">
        <defs id="SvgjsDefs2215"></defs>
        <g id="SvgjsG2216" featureKey="root" fill="#489431"></g>
        <g id="SvgjsG2217" featureKey="container1" fill="#d0fac2"
           transform="matrix(2.268144184419614,0,0,2.268144184419614,0.00001668910896570203,0.009466565526911226)">
            <title xmlns="http://www.w3.org/2000/svg">Untitled-1</title>
            <path xmlns="http://www.w3.org/2000/svg"
                  d="M23.11,55.78L1.69,43.41A3.39,3.39,0,0,1,0,40.48V15.75a3.39,3.39,0,0,1,1.69-2.94L23.11,0.45a3.39,3.39,0,0,1,3.39,0L47.91,12.82a3.39,3.39,0,0,1,1.69,2.94V40.48a3.39,3.39,0,0,1-1.69,2.94L26.5,55.78A3.39,3.39,0,0,1,23.11,55.78Z"></path>
        </g>
        <g id="SvgjsG2218" featureKey="symbol1" fill="#489431"
           transform="matrix(0.8107325499967969,0,0,0.8107325499967969,15.57769258127724,23.639310416431954)">
            <g xmlns="http://www.w3.org/2000/svg">
                <path d="M80.7,66.4c1.2-0.8,6.3-1.8,6.3-1.8c7.8-3.2,5.8-13.2,5.8-13.2c-4.2-14.8-18.8-13.7-18.8-13.7c-0.7-8.5-8.7-18.5-14.7-20.5   s-7.2,0.8-7.2,0.8c-5.5,7.5,11.7,23.2,11.7,23.2c-9.3-3.8-22.7-2.7-22.7-2.7c-21.3,1.7-27.7,17.2-27.7,17.2c-4.7-0.3-4.7,4-4.7,4   s-1.8,0.5-2,2.3c-0.2,1.8,2.2,3.7,2.2,3.7c-0.5,3.5,5,3.8,5,3.8s1.2,1.7,2.3,6.3c1.2,4.7,8.5,7.3,8.5,7.3s60.8,0.5,61.8-0.2   s0.5-1.8,0.5-1.8c-0.2-3.3-9.2-4.8-9.2-4.8c0.8-0.7,0.2-4.8,0.2-4.8C78.1,70.4,79.6,67.3,80.7,66.4z M78.8,49.5   c-0.4-0.4-0.6-0.9-0.6-1.4c0-0.5,0.2-1,0.6-1.4c0.7-0.7,2.1-0.8,2.8,0c0.4,0.4,0.6,0.9,0.6,1.4c0,0.5-0.2,1-0.6,1.4   c-0.4,0.4-0.9,0.6-1.4,0.6C79.7,50.1,79.2,49.9,78.8,49.5z"></path>
            </g>
        </g>
        <g id="SvgjsG2219" featureKey="text1" fill="#000000"
           transform="matrix(2.813427400662231,0,0,2.813427400662231,129.90522710910076,0.14213424717568657)">
            <path d="M8.14 12.04 q-2.14 0 -3.27 1.33 t-1.13 3.69 q0 1.12 0.27 2.05 t0.8 1.59 t1.32 1.03 t1.85 0.37 q0.66 0 1.14 -0.05 t0.76 -0.13 l0 -4.98 l2.52 0 l0 6.66 q-0.52 0.2 -1.76 0.44 t-2.86 0.24 q-1.5 0 -2.74 -0.48 t-2.11 -1.4 t-1.35 -2.26 t-0.48 -3.08 t0.53 -3.08 t1.45 -2.27 t2.16 -1.41 t2.64 -0.48 q0.96 0 1.71 0.13 t1.29 0.29 t0.89 0.34 t0.49 0.26 l-0.76 2.06 q-0.6 -0.36 -1.49 -0.61 t-1.87 -0.25 z M24.66 18.759999999999998 q0 1.24 -0.36 2.26 t-1.02 1.74 t-1.59 1.12 t-2.05 0.4 t-2.04 -0.4 t-1.58 -1.12 t-1.03 -1.74 t-0.37 -2.26 t0.37 -2.25 t1.04 -1.73 t1.59 -1.11 t2.02 -0.39 t2.03 0.39 t1.59 1.11 t1.03 1.73 t0.37 2.25 z M22.18 18.759999999999998 q0 -1.56 -0.67 -2.47 t-1.87 -0.91 t-1.87 0.91 t-0.67 2.47 q0 1.58 0.67 2.5 t1.87 0.92 t1.87 -0.92 t0.67 -2.5 z M33.44 24.3 q-1.56 0 -2.8 -0.48 t-2.1 -1.41 t-1.32 -2.27 t-0.46 -3.08 t0.53 -3.08 t1.45 -2.27 t2.16 -1.41 t2.66 -0.48 q0.86 0 1.56 0.13 t1.22 0.29 t0.86 0.34 t0.48 0.26 l-0.74 2.06 q-0.48 -0.3 -1.37 -0.57 t-1.93 -0.27 q-0.9 0 -1.68 0.31 t-1.35 0.93 t-0.89 1.56 t-0.32 2.18 q0 1.1 0.25 2.02 t0.77 1.59 t1.32 1.04 t1.92 0.37 q1.34 0 2.18 -0.27 t1.3 -0.51 l0.68 2.06 q-0.24 0.16 -0.65 0.32 t-0.97 0.31 t-1.26 0.24 t-1.5 0.09 z M48.46 13.54 q-1.62 5.96 -3.76 10.8 q-0.4 0.9 -0.82 1.54 t-0.94 1.06 t-1.16 0.61 t-1.48 0.19 q-0.56 0 -1.11 -0.12 t-0.83 -0.26 l0.44 -1.94 q0.72 0.28 1.42 0.28 q0.94 0 1.47 -0.45 t0.93 -1.39 q-1.14 -2.2 -2.19 -4.8 t-1.87 -5.52 l2.58 0 q0.2 0.84 0.49 1.82 t0.63 1.99 t0.72 2.01 t0.76 1.86 q0.64 -1.78 1.2 -3.79 t1.02 -3.89 l2.5 0 z M57.24000000000001 18.82 q0 -1.62 -0.73 -2.52 t-2.35 -0.9 q-0.34 0 -0.71 0.03 t-0.73 0.13 l0 5.98 q0.32 0.22 0.85 0.41 t1.13 0.19 q1.32 0 1.93 -0.9 t0.61 -2.42 z M59.720000000000006 18.78 q0 1.2 -0.31 2.2 t-0.89 1.72 t-1.45 1.12 t-1.97 0.4 q-0.74 0 -1.36 -0.18 t-1.02 -0.4 l0 4.06 l-2.42 0 l0 -13.82 q0.74 -0.2 1.82 -0.38 t2.28 -0.18 q1.24 0 2.22 0.38 t1.67 1.09 t1.06 1.72 t0.37 2.27 z M62.220000000000006 24 l0 -15.12 l2.42 -0.4 l0 5.18 q0.4 -0.14 0.93 -0.24 t1.05 -0.1 q1.26 0 2.09 0.35 t1.33 0.98 t0.71 1.51 t0.21 1.96 l0 5.88 l-2.42 0 l0 -5.5 q0 -0.84 -0.11 -1.43 t-0.36 -0.96 t-0.67 -0.54 t-1.04 -0.17 q-0.48 0 -0.98 0.1 t-0.74 0.18 l0 8.32 l-2.42 0 z M73.28 18.82 q0 -1.38 0.41 -2.42 t1.09 -1.73 t1.56 -1.04 t1.8 -0.35 q2.16 0 3.37 1.34 t1.21 4 q0 0.2 -0.01 0.45 t-0.03 0.45 l-6.9 0 q0.1 1.26 0.89 1.95 t2.29 0.69 q0.88 0 1.61 -0.16 t1.15 -0.34 l0.32 1.98 q-0.2 0.1 -0.55 0.21 t-0.8 0.2 t-0.97 0.15 t-1.06 0.06 q-1.38 0 -2.4 -0.41 t-1.68 -1.14 t-0.98 -1.72 t-0.32 -2.17 z M80.30000000000001 17.740000000000002 q0 -0.5 -0.14 -0.95 t-0.41 -0.78 t-0.66 -0.52 t-0.93 -0.19 q-0.56 0 -0.98 0.21 t-0.71 0.55 t-0.45 0.78 t-0.22 0.9 l4.5 0 z M91.24000000000001 15.72 q-0.3 -0.1 -0.83 -0.21 t-1.23 -0.11 q-0.4 0 -0.85 0.08 t-0.63 0.14 l0 8.38 l-2.42 0 l0 -9.96 q0.7 -0.26 1.75 -0.49 t2.33 -0.23 q0.24 0 0.56 0.03 t0.64 0.08 t0.62 0.12 t0.48 0.13 z"></path>
        </g>
        <g id="SvgjsG2220" featureKey="text3" fill="#d0fac2"
           transform="matrix(0.8249244601758327,0,0,0.8249244601758327,194.1943892524185,85.15358909356617)">
            <path d="M6.1035 10.019375 q-1.26953125 1.71875 -1.26953125 4.66796875 q0 3.4375 -2.05078125 4.169921875 q2.05078125 0.732421875 2.05078125 4.169921875 q0 2.94921875 1.26953125 4.66796875 l-1.8066 0 q-1.26953125 -1.71875 -1.26953125 -4.66796875 q0 -3.4375 -2.05078125 -3.4375 l0 -1.4648 q2.05078125 0 2.05078125 -3.4375 q0 -2.94921875 1.26953125 -4.66796875 l1.8066 0 z M8.056596875 23.984375 l0 -10.752 q0 -3.720703125 4.21875 -3.720703125 q1.162109375 0 2.1875 0.390625 l0 1.4648 q-0.966796875 -0.390625 -2.197265625 -0.390625 q-2.40234375 0 -2.40234375 2.177734375 l0 0.57617 l3.1738 0 l0 1.4648 l-3.1738 0 l0 8.7891 l-1.8066 0 z M18.906275 22.519575 q3.076171875 0 3.076171875 -3.701171875 q0 -3.623046875 -3.076171875 -3.623046875 t-3.0762 3.623 q0 3.701171875 3.076171875 3.701171875 z M14.023435 18.857375 q0 -5.126953125 4.8828125 -5.126953125 t4.8828 5.127 q0 5.1171875 -4.8828125 5.1171875 q-4.86328125 0 -4.8828125 -5.1171875 z M28.134725 10.019375 l0 13.965 l-1.8066 0 l0 -13.965 l1.8066 0 z M33.066365625 10.019375 l0 13.965 l-1.8066 0 l0 -13.965 l1.8066 0 z M40.48830625 22.519575 q3.076171875 0 3.076171875 -3.701171875 q0 -3.623046875 -3.076171875 -3.623046875 t-3.0762 3.623 q0 3.701171875 3.076171875 3.701171875 z M35.60546625 18.857375 q0 -5.126953125 4.8828125 -5.126953125 t4.8828 5.127 q0 5.1171875 -4.8828125 5.1171875 q-4.86328125 0 -4.8828125 -5.1171875 z M46.68945625 13.730375 l1.8262 0 l1.8164 8.0371 l2.666 -8.0371 l1.6309 0 l2.8516 8.0371 l1.6406 -8.0371 l1.9141 0 l-2.6758 10.254 l-1.6504 0 l-2.9395 -7.666 l-2.793 7.666 l-1.6895 0 z  M67.724565625 12.070375 l1.1328 0 l0.39063 1.6602 l2.7734 0 l0 1.4648 l-2.4902 0 l0 5.8887 q0 1.435546875 1.240234375 1.435546875 l1.25 0 l0 1.4648 l-1.7188 0 q-2.578125 0 -2.578125 -2.763671875 l0 -9.1504 z M74.3163625 23.984375 l0 -13.965 l1.8066 0 l0 4.8242 q1.30859375 -1.11328125 3.193359375 -1.11328125 q3.837890625 0 3.837890625 3.818359375 l0 6.4355 l-1.8066 0 l0 -6.4648 q0 -2.28515625 -2.275390625 -2.28515625 q-1.552734375 0 -2.94921875 1.298828125 l0 7.4512 l-1.8066 0 z M90.312540625 13.730375 q4.375 0 4.375 4.326171875 q0 0.615234375 -0.087890625 1.318359375 l-7.1973 0 q0 3.14453125 3.671875 3.14453125 q1.748046875 0 3.10546875 -0.390625 l0 1.4648 q-1.357421875 0.390625 -3.30078125 0.390625 q-5.283203125 0 -5.283203125 -5.244140625 q0 -5.009765625 4.716796875 -5.009765625 z M87.402340625 17.871075 l5.5469 0 q-0.05859375 -2.6953125 -2.63671875 -2.6953125 q-2.734375 0 -2.91015625 2.6953125 z  M102.001909375 23.984375 l0 -10.254 l1.2207 0 l0.32227 1.3086 q1.34765625 -1.30859375 3.2421875 -1.30859375 l0 1.5039 q-1.8359375 0 -2.978515625 1.298828125 l0 7.4512 l-1.8066 0 z M108.10546625 20.888675 q0 -3.154296875 4.16015625 -3.154296875 q1.337890625 0 2.67578125 0.1953125 l0 -0.9668 q0 -1.767578125 -2.763671875 -1.767578125 q-1.58203125 0 -3.2421875 0.48828125 l0 -1.4648 q1.66015625 -0.48828125 3.2421875 -0.48828125 q4.5703125 0 4.5703125 3.18359375 l0 7.0703 l-1.0156 0 l-0.625 -1.0156 q-1.533203125 1.015625 -3.33984375 1.015625 q-3.662109375 0 -3.662109375 -3.095703125 z M112.26560625 19.199175 q-2.353515625 0 -2.353515625 1.66015625 t1.8555 1.6602 q1.875 0 3.173828125 -0.99609375 l0 -2.1289 q-1.337890625 -0.1953125 -2.67578125 -0.1953125 z M121.484390625 22.197275 q0.888671875 0.283203125 2.158203125 0.283203125 q3.41796875 0 3.41796875 -3.896484375 q0 -3.291015625 -3.095703125 -3.291015625 q-1.40625 0 -2.48046875 0.52734375 l0 6.377 z M119.677690625 10.019375 l1.8066 0 l0 4.1992 q1.162109375 -0.48828125 2.490234375 -0.48828125 q4.86328125 0 4.86328125 4.921875 q0 5.33203125 -5.107421875 5.33203125 q-2.20703125 0 -4.052734375 -0.419921875 l0 -13.545 z M133.085953125 22.197275 q0.888671875 0.283203125 2.158203125 0.283203125 q3.41796875 0 3.41796875 -3.896484375 q0 -3.291015625 -3.095703125 -3.291015625 q-1.40625 0 -2.48046875 0.52734375 l0 6.377 z M131.279253125 10.019375 l1.8066 0 l0 4.1992 q1.162109375 -0.48828125 2.490234375 -0.48828125 q4.86328125 0 4.86328125 4.921875 q0 5.33203125 -5.107421875 5.33203125 q-2.20703125 0 -4.052734375 -0.419921875 l0 -13.545 z M144.882815625 13.730375 l0 10.254 l-1.8066 0 l0 -10.254 l1.8066 0 z M144.882815625 10.019375 l0 1.709 l-1.8066 0 l0 -1.709 l1.8066 0 z M148.00776875 12.070375 l1.1328 0 l0.39063 1.6602 l2.7734 0 l0 1.4648 l-2.4902 0 l0 5.8887 q0 1.435546875 1.240234375 1.435546875 l1.25 0 l0 1.4648 l-1.7188 0 q-2.578125 0 -2.578125 -2.763671875 l0 -9.1504 z M155.429665625 10.019375 q1.26953125 1.71875 1.26953125 4.66796875 q0 3.4375 2.05078125 3.4375 l0 1.4648 q-2.05078125 0 -2.05078125 3.4375 q0 2.94921875 -1.26953125 4.66796875 l-1.8066 0 q1.26953125 -1.71875 1.26953125 -4.66796875 q0 -3.4375 2.05078125 -4.169921875 q-2.05078125 -0.732421875 -2.05078125 -4.169921875 q0 -2.94921875 -1.26953125 -4.66796875 l1.8066 0 z"></path>
        </g>
    </g>
</svg>
