<?xml version="1.0" encoding="UTF-8"?>
<svg xmlns="http://www.w3.org/2000/svg" xmlns:xlink="http://www.w3.org/1999/xlink" width="64pt" height="64pt" viewBox="0 0 64 64" version="1.1">
<g id="surface1">
<path style=" stroke:none;fill-rule:nonzero;fill:rgb(0%,0%,0%);fill-opacity:1;" d="M 32.125 12 C 34.25 11.9375 35.9375 10.25 36 8.125 C 36.0625 5.8125 34.1875 3.9375 31.875 4 C 29.75 4.0625 28.0625 5.75 28 7.875 C 27.9375 10.1875 29.8125 12.0625 32.125 12 Z M 61.125 36 L 60 36 L 52.0625 20.625 C 53.1875 20.5 54.3125 20.0625 55.3125 19.625 C 56.8125 18.9375 57.125 16.9375 56 15.75 L 55.9375 15.6875 C 55.25 15 54.1875 14.75 53.25 15.1875 C 52.375 15.5625 51.125 16 49.9375 16 C 46.4375 16 44.875 12 32 12 C 19.125 12 17.5625 16 14.0625 16 C 12.8125 16 11.625 15.625 10.75 15.1875 C 9.8125 14.8125 8.75 15 8.0625 15.6875 L 8 15.75 C 6.875 16.9375 7.1875 18.875 8.6875 19.625 C 9.6875 20.125 10.8125 20.5 11.9375 20.625 L 4 36 L 2.875 36 C 2.375 36 2 36.4375 2.0625 36.9375 C 2.75 40.9375 7.8125 44 14 44 C 20.1875 44 25.25 40.9375 25.9375 36.9375 C 26 36.4375 25.625 36 25.125 36 L 24 36 L 16.0625 20.6875 C 21.25 20.25 24 17.625 28 17.625 L 28 48 C 25.8125 48 24 49.8125 24 52 L 19.5625 52 C 17.8125 52 16 53.8125 16 56 L 48 56 C 48 53.8125 46.1875 52 43.5625 52 L 40 52 C 40 49.8125 38.1875 48 36 48 L 36 17.625 C 40 17.625 42.75 20.25 47.9375 20.6875 L 40 36 L 38.875 36 C 38.375 36 38 36.4375 38.0625 36.9375 C 38.75 40.9375 43.8125 44 50 44 C 56.1875 44 61.25 40.9375 61.9375 36.9375 C 62 36.4375 61.625 36 61.125 36 Z M 20 36 L 8 36 L 14 24.75 Z M 44 36 L 50 24.75 L 56 36 Z M 44 36 "/>
</g>
</svg>
