<svg xmlns="http://www.w3.org/2000/svg" xmlns:xlink="http://www.w3.org/1999/xlink" version="1.1" width="305" height="115" viewBox="-0.023992324247956276 0 305.0479736328125 115" ><rect id="svgEditorBackground" x="0" y="0" width="305" height="115" style="fill:none; stroke: none;"/>
			
			<g transform="scale(0.751937984496124) translate(10, 10)">
				<defs id="SvgjsDefs2215"/>
        <g id="SvgjsG2216" featureKey="root" fill="#489431"/>
        <g id="SvgjsG2217" featureKey="container1" fill="#d0fac2" transform="matrix(2.268144184419614,0,0,2.268144184419614,0.00001668910896570203,0.009466565526911226)">
        <title xmlns="http://www.w3.org/2000/svg">Untitled-1</title>
        <path xmlns="http://www.w3.org/2000/svg" d="M23.11,55.78l-21.419999999999998,-12.370000000000005a3.39,3.39,0,0,1,-1.6900000000000004,-2.9299999999999997v-24.729999999999997a3.39,3.39,0,0,1,1.6900000000000004,-2.9399999999999995l21.419999999999998,-12.360000000000001a3.39,3.39,0,0,1,3.3900000000000006,0l21.409999999999997,12.370000000000001a3.39,3.39,0,0,1,1.6899999999999977,2.9399999999999995v24.72a3.39,3.39,0,0,1,-1.6899999999999977,2.9399999999999977l-21.409999999999997,12.360000000000007a3.39,3.39,0,0,1,-3.3900000000000006,0Z"/> </g>
        <g id="SvgjsG2218" featureKey="symbol1" fill="#489431" transform="matrix(0.8107325499967969,0,0,0.8107325499967969,15.57769258127724,23.639310416431954)"><g xmlns="http://www.w3.org/2000/svg"><path d="M80.7,66.4c1.2-0.8,6.3-1.8,6.3-1.8c7.8-3.2,5.8-13.2,5.8-13.2c-4.2-14.8-18.8-13.7-18.8-13.7c-0.7-8.5-8.7-18.5-14.7-20.5   s-7.2,0.8-7.2,0.8c-5.5,7.5,11.7,23.2,11.7,23.2c-9.3-3.8-22.7-2.7-22.7-2.7c-21.3,1.7-27.7,17.2-27.7,17.2c-4.7-0.3-4.7,4-4.7,4   s-1.8,0.5-2,2.3c-0.2,1.8,2.2,3.7,2.2,3.7c-0.5,3.5,5,3.8,5,3.8s1.2,1.7,2.3,6.3c1.2,4.7,8.5,7.3,8.5,7.3s60.8,0.5,61.8-0.2   s0.5-1.8,0.5-1.8c-0.2-3.3-9.2-4.8-9.2-4.8c0.8-0.7,0.2-4.8,0.2-4.8C78.1,70.4,79.6,67.3,80.7,66.4z M78.8,49.5   c-0.4-0.4-0.6-0.9-0.6-1.4c0-0.5,0.2-1,0.6-1.4c0.7-0.7,2.1-0.8,2.8,0c0.4,0.4,0.6,0.9,0.6,1.4c0,0.5-0.2,1-0.6,1.4   c-0.4,0.4-0.9,0.6-1.4,0.6C79.7,50.1,79.2,49.9,78.8,49.5z"/></g></g><g id="SvgjsG2219" featureKey="text1" fill="#000000" transform="matrix(2.813427400662231,0,0,2.813427400662231,129.90522710910076,0.14213424717568657)"><path d="M8.14,12.04q-2.1400000000000006,0,-3.2699999999999996,1.33t-1.13,3.6899999999999995q0,1.120000000000001,0.27000000000000046,2.0500000000000007t0.7999999999999998,1.5899999999999999t1.3200000000000003,1.0300000000000011t1.8500000000000005,0.370000000000001q0.6600000000000001,0,1.1400000000000006,-0.05000000000000071t0.7599999999999998,-0.129999999999999l0,-4.98l2.5199999999999996,0l0,6.66q-0.5199999999999996,0.1999999999999993,-1.7599999999999998,0.4400000000000013t-2.8600000000000003,0.23999999999999844q-1.5,0,-2.74,-0.4800000000000004t-2.11,-1.3999999999999986t-1.35,-2.2600000000000016t-0.48,-3.0799999999999983t0.5300000000000002,-3.08t1.4499999999999997,-2.2699999999999996t2.16,-1.4100000000000001t2.6400000000000015,-0.4800000000000004q0.96,0,1.71,0.13000000000000078t1.2899999999999991,0.28999999999999915t0.8900000000000006,0.33999999999999986t0.4900000000000002,0.2599999999999998l-0.7599999999999998,2.0600000000000005q-0.5999999999999996,-0.35999999999999943,-1.4900000000000002,-0.6099999999999994t-1.8699999999999992,-0.25ZM24.66,18.759999999999998q0,1.2399999999999984,-0.35999999999999943,2.259999999999998t-1.0199999999999996,1.740000000000002t-1.5899999999999999,1.120000000000001t-2.0500000000000007,0.3999999999999986t-2.039999999999999,-0.3999999999999986t-1.5799999999999983,-1.120000000000001t-1.0299999999999994,-1.740000000000002t-0.3699999999999992,-2.259999999999998t0.3699999999999992,-2.25t1.040000000000001,-1.7300000000000004t1.5899999999999999,-1.1099999999999994t2.0199999999999996,-0.39000000000000057t2.030000000000001,0.39000000000000057t1.5899999999999999,1.1099999999999994t1.0300000000000011,1.7300000000000004t0.370000000000001,2.25ZM22.18,18.759999999999998q0,-1.5599999999999987,-0.6700000000000017,-2.469999999999999t-1.870000000000001,-0.9100000000000001t-1.870000000000001,0.9100000000000001t-0.6700000000000017,2.469999999999999q0,1.5799999999999983,0.6700000000000017,2.5t1.870000000000001,0.9200000000000017t1.870000000000001,-0.9200000000000017t0.6700000000000017,-2.5ZM33.44,24.3q-1.5599999999999987,0,-2.8000000000000007,-0.4800000000000004t-2.1000000000000014,-1.4100000000000001t-1.3200000000000003,-2.2699999999999996t-0.46000000000000085,-3.0799999999999983t0.5300000000000011,-3.08t1.4499999999999993,-2.2699999999999996t2.16,-1.4100000000000001t2.66,-0.4800000000000004q0.8599999999999994,0,1.5600000000000023,0.13000000000000078t1.2199999999999989,0.28999999999999915t0.8599999999999994,0.33999999999999986t0.4799999999999969,0.2599999999999998l-0.740000000000002,2.0600000000000005q-0.4799999999999969,-0.3000000000000007,-1.3699999999999974,-0.5700000000000003t-1.9299999999999997,-0.2699999999999996q-0.8999999999999986,0,-1.6799999999999997,0.3100000000000005t-1.3500000000000014,0.9299999999999997t-0.8900000000000006,1.5600000000000005t-0.3200000000000003,2.1799999999999997q0,1.1000000000000014,0.25,2.0199999999999996t0.7699999999999996,1.5899999999999999t1.3200000000000003,1.0399999999999991t1.9199999999999982,0.370000000000001q1.3400000000000034,0,2.1799999999999997,-0.2699999999999996t1.2999999999999972,-0.5100000000000016l0.6799999999999997,2.0599999999999987q-0.240000000000002,0.16000000000000014,-0.6499999999999986,0.3200000000000003t-0.9699999999999989,0.3099999999999987t-1.259999999999998,0.23999999999999844t-1.5,0.08999999999999986ZM48.46,13.54q-1.6199999999999974,5.960000000000001,-3.759999999999998,10.8q-0.3999999999999986,0.8999999999999986,-0.8200000000000003,1.5399999999999991t-0.9399999999999977,1.0599999999999987t-1.1600000000000037,0.6099999999999994t-1.4799999999999969,0.19000000000000128q-0.5600000000000023,0,-1.1099999999999994,-0.120000000000001t-0.8299999999999983,-0.26000000000000156l0.4399999999999977,-1.9400000000000013q0.7199999999999989,0.28000000000000114,1.4200000000000017,0.28000000000000114q0.9399999999999977,0,1.4699999999999989,-0.4499999999999993t0.9299999999999997,-1.3900000000000006q-1.1400000000000006,-2.1999999999999993,-2.1899999999999977,-4.800000000000001t-1.8699999999999974,-5.52l2.5799999999999983,0q0.20000000000000284,0.8399999999999999,0.490000000000002,1.8200000000000003t0.6300000000000026,1.9899999999999984t0.7199999999999989,2.009999999999998t0.759999999999998,1.8599999999999994q0.6400000000000006,-1.7800000000000011,1.2000000000000028,-3.789999999999999t1.0200000000000031,-3.8900000000000006l2.5,0ZM57.24000000000001,18.82q0,-1.620000000000001,-0.7299999999999969,-2.5199999999999996t-2.3500000000000014,-0.9000000000000004q-0.3400000000000034,0,-0.7100000000000009,0.02999999999999936t-0.7299999999999969,0.13000000000000078l0,5.979999999999999q0.3200000000000003,0.21999999999999886,0.8500000000000014,0.41000000000000014t1.1300000000000026,0.19000000000000128q1.3200000000000003,0,1.9299999999999997,-0.8999999999999986t0.6099999999999994,-2.4200000000000017ZM59.720000000000006,18.78q0,1.1999999999999993,-0.3100000000000023,2.1999999999999993t-0.8900000000000006,1.7199999999999989t-1.4500000000000028,1.120000000000001t-1.9699999999999989,0.3999999999999986q-0.740000000000002,0,-1.3599999999999994,-0.17999999999999972t-1.0200000000000031,-0.3999999999999986l0,4.059999999999999l-2.4200000000000017,0l0,-13.82q0.740000000000002,-0.1999999999999993,1.8200000000000003,-0.3800000000000008t2.280000000000001,-0.17999999999999972q1.240000000000002,0,2.219999999999999,0.3800000000000008t1.6700000000000017,1.0899999999999999t1.0600000000000023,1.7199999999999989t0.36999999999999744,2.2699999999999996ZM62.220000000000006,24l0,-15.12l2.4199999999999946,-0.40000000000000036l0,5.18q0.4000000000000057,-0.14000000000000057,0.9300000000000068,-0.2400000000000002t1.0499999999999972,-0.09999999999999964q1.2600000000000051,0,2.0900000000000034,0.34999999999999964t1.3299999999999983,0.9800000000000004t0.7099999999999937,1.5099999999999998t0.20999999999999375,1.9600000000000009l0,5.879999999999999l-2.4200000000000017,0l0,-5.5q0,-0.8399999999999999,-0.10999999999999943,-1.4299999999999997t-0.35999999999999943,-0.9600000000000009t-0.6700000000000017,-0.5399999999999991t-1.0400000000000063,-0.16999999999999993q-0.480000000000004,0,-0.980000000000004,0.09999999999999964t-0.7399999999999949,0.17999999999999972l0,8.32l-2.4200000000000017,0ZM73.28,18.82q0,-1.379999999999999,0.4099999999999966,-2.4200000000000017t1.0900000000000034,-1.7300000000000004t1.5600000000000023,-1.0399999999999991t1.7999999999999972,-0.34999999999999964q2.1599999999999966,0,3.3700000000000045,1.3400000000000016t1.2099999999999937,3.9999999999999964q0,0.1999999999999993,-0.010000000000005116,0.4499999999999993t-0.030000000000001137,0.4499999999999993l-6.900000000000006,0q0.09999999999999432,1.2600000000000016,0.8900000000000006,1.9499999999999993t2.2900000000000063,0.6900000000000013q0.8799999999999955,0,1.6099999999999994,-0.16000000000000014t1.1500000000000057,-0.33999999999999986l0.3199999999999932,1.9800000000000004q-0.20000000000000284,0.10000000000000142,-0.5499999999999972,0.21000000000000085t-0.7999999999999972,0.1999999999999993t-0.9699999999999989,0.14999999999999858t-1.0600000000000023,0.05999999999999872q-1.3799999999999955,0,-2.4000000000000057,-0.41000000000000014t-1.6800000000000068,-1.1400000000000006t-0.980000000000004,-1.7199999999999989t-0.3199999999999932,-2.1700000000000017ZM80.30000000000001,17.740000000000002q0,-0.5,-0.14000000000000057,-0.9499999999999993t-0.4099999999999966,-0.7800000000000011t-0.6599999999999966,-0.5199999999999996t-0.9300000000000068,-0.1899999999999995q-0.5600000000000023,0,-0.980000000000004,0.21000000000000085t-0.7099999999999937,0.5499999999999989t-0.45000000000000284,0.7800000000000011t-0.21999999999999886,0.8999999999999986l4.5,0ZM91.24000000000001,15.72q-0.29999999999999716,-0.09999999999999964,-0.8299999999999983,-0.21000000000000085t-1.230000000000004,-0.10999999999999943q-0.4000000000000057,0,-0.8499999999999943,0.08000000000000007t-0.6299999999999955,0.14000000000000057l0,8.379999999999999l-2.4200000000000017,0l0,-9.96q0.7000000000000028,-0.2599999999999998,1.75,-0.4900000000000002t2.3299999999999983,-0.23000000000000043q0.23999999999999488,0,0.5600000000000023,0.02999999999999936t0.6400000000000006,0.08000000000000007t0.6200000000000045,0.11999999999999922t0.480000000000004,0.13000000000000078Z" transform="matrix(0.872729 0 0 0.872729 -1.3081 -0.538634)"/></g><g id="SvgjsG2220" featureKey="text3" fill="#d0fac2" transform="matrix(0.8249244601758327,0,0,0.8249244601758327,194.1943892524185,85.15358909356617)"/>
			</g>
		<text style="fill:#d0fac2; font-family:Georgia; font-size:1.2rem;font-style:normal;font-weight:normal;" x="118.50776672363281" y="75.7101058959961" id="e1_texte" transform="matrix(0.96356 0 0 1 -8.56464 3.09021)">{ Streams Administrator }</text></svg>